<svg xmlns="http://www.w3.org/2000/svg" viewBox="0 0 512 512" fill="currentColor">
  <!-- Hachi Logo - Dálmata -->
  <g>
    <!-- Orelha esquerda -->
    <path d="M128 80c-20 10-45 40-55 75-10 35-8 65 0 85 8 20 20 30 30 28 10-2 15-20 18-45 3-25 5-55 15-80 10-25 20-45 12-58-8-13-20-5-20-5z"/>
    <!-- Orelha direita -->
    <path d="M384 80c20 10 45 40 55 75 10 35 8 65 0 85-8 20-20 30-30 28-10-2-15-20-18-45-3-25-5-55-15-80-10-25-20-45-12-58 8-13 20-5 20-5z"/>
    <!-- Cabeça contorno -->
    <path d="M175 95c-15 15-30 45-35 80-5 35-2 60 5 85 7 25 20 50 40 70 20 20 45 35 71 38 26-3 51-18 71-38 20-20 33-45 40-70 7-25 10-50 5-85-5-35-20-65-35-80-15-15-35-25-60-30h-42c-25 5-45 15-60 30z" fill="none" stroke="currentColor" stroke-width="4"/>
    <!-- Topo da cabeça -->
    <path d="M195 105c15-12 35-20 61-22 26 2 46 10 61 22 12 10 22 25 28 45-20-15-50-22-89-22s-69 7-89 22c6-20 16-35 28-45z"/>
    <!-- Olho esquerdo -->
    <path d="M200 210c0-12 10-22 22-22s22 10 22 22-10 22-22 22-22-10-22-22z"/>
    <circle cx="215" cy="205" r="6" fill="white"/>
    <!-- Olho direito -->
    <path d="M268 210c0-12 10-22 22-22s22 10 22 22-10 22-22 22-22-10-22-22z"/>
    <circle cx="283" cy="205" r="6" fill="white"/>
    <!-- Mancha ao redor do olho direito -->
    <path d="M265 180c8-8 20-12 35-10 15 2 25 10 28 22 3 12-2 25-12 32-5-12-15-20-25-25-10-5-18-12-26-19z"/>
    <!-- Nariz -->
    <path d="M230 275c5-5 15-10 26-10s21 5 26 10c5 5 8 12 6 20-2 8-8 15-16 18-6 3-12 4-16 4s-10-1-16-4c-8-3-14-10-16-18-2-8 1-15 6-20z"/>
    <!-- Boca -->
    <path d="M235 310c7 8 14 12 21 12s14-4 21-12" fill="none" stroke="currentColor" stroke-width="3" stroke-linecap="round"/>
    <!-- Manchas na cabeça -->
    <circle cx="245" cy="130" r="8"/>
    <circle cx="280" cy="145" r="6"/>
    <circle cx="200" cy="155" r="7"/>
    <circle cx="320" cy="170" r="5"/>
    <circle cx="185" cy="250" r="6"/>
    <circle cx="330" cy="240" r="7"/>
    <!-- Manchas no pescoço -->
    <circle cx="210" cy="360" r="10"/>
    <circle cx="260" cy="380" r="8"/>
    <circle cx="310" cy="355" r="9"/>
    <circle cx="235" cy="400" r="7"/>
    <circle cx="290" cy="410" r="6"/>
    <circle cx="180" cy="390" r="5"/>
    <circle cx="340" cy="385" r="6"/>
    <!-- Pescoço/corpo -->
    <path d="M185 340c-10 20-18 45-20 70-2 25 0 45 5 60 15-5 40-10 86-10s71 5 86 10c5-15 7-35 5-60-2-25-10-50-20-70-25 15-55 22-71 22s-46-7-71-22z" fill="none" stroke="currentColor" stroke-width="3"/>
  </g>
</svg>
