<svg xmlns="http://www.w3.org/2000/svg" viewBox="0 0 200 220" fill="currentColor">
  <!-- Hachi - Dálmata Portrait -->
  <!-- Orelha esquerda -->
  <path d="M42 58c-8 4-18 16-24 32-6 16-6 30-2 40s12 14 16 12c4-2 6-12 8-24s4-26 10-38c4-8 8-14 6-20-2-4-8-4-14-2z"/>
  <!-- Orelha direita -->
  <path d="M158 58c8 4 18 16 24 32 6 16 6 30 2 40s-12 14-16 12c-4-2-6-12-8-24s-4-26-10-38c-4-8-8-14-6-20 2-4 8-4 14-2z"/>
  <!-- Cabeça forma principal -->
  <path d="M65 55c-8 10-14 28-16 48-2 18 0 34 5 48 5 14 14 26 26 35 10 8 20 12 20 12s10-4 20-12c12-9 21-21 26-35 5-14 7-30 5-48-2-20-8-38-16-48-8-10-20-18-35-22h-0c-15 4-27 12-35 22z" fill="none" stroke="currentColor" stroke-width="3.5"/>
  <!-- Topo cabeça -->
  <path d="M75 62c8-7 18-12 25-13 7 1 17 6 25 13 6 5 11 13 14 22-12-8-26-12-39-12s-27 4-39 12c3-9 8-17 14-22z"/>
  <!-- Olho esquerdo -->
  <ellipse cx="83" cy="108" rx="9" ry="10"/>
  <ellipse cx="80" cy="105" rx="3" ry="3.5" fill="white"/>
  <!-- Olho direito -->
  <ellipse cx="117" cy="108" rx="9" ry="10"/>
  <ellipse cx="114" cy="105" rx="3" ry="3.5" fill="white"/>
  <!-- Mancha olho direito -->
  <path d="M108 92c5-4 12-5 18-3 6 2 10 7 11 13 1 5-1 10-4 14-3-6-8-11-13-14-5-3-9-7-12-10z"/>
  <!-- Mancha olho esquerdo (menor) -->
  <path d="M78 95c-3-2-5-4-4-6 1-2 4-2 6-1 2 1 3 3 2 5-1 1-2 2-4 2z"/>
  <!-- Nariz -->
  <path d="M90 140c3-3 7-5 10-5s7 2 10 5c3 3 4 7 3 11-1 4-4 7-8 9-3 1-5 2-5 2s-2-1-5-2c-4-2-7-5-8-9-1-4 0-8 3-11z"/>
  <!-- Linha boca -->
  <path d="M93 160c4 4 7 5 7 5s3-1 7-5" fill="none" stroke="currentColor" stroke-width="2" stroke-linecap="round"/>
  <!-- Manchas cabeça -->
  <circle cx="92" cy="68" r="4"/>
  <circle cx="112" cy="72" r="3.5"/>
  <circle cx="72" cy="80" r="3"/>
  <circle cx="130" cy="85" r="2.5"/>
  <circle cx="105" cy="60" r="2.5"/>
  <!-- Manchas bochechas -->
  <circle cx="68" cy="125" r="3"/>
  <circle cx="135" cy="120" r="3.5"/>
  <!-- Manchas pescoço -->
  <circle cx="78" cy="178" r="5"/>
  <circle cx="100" cy="188" r="4.5"/>
  <circle cx="122" cy="176" r="5"/>
  <circle cx="88" cy="200" r="4"/>
  <circle cx="112" cy="205" r="3.5"/>
  <circle cx="68" cy="192" r="3"/>
  <circle cx="138" cy="188" r="3.5"/>
  <circle cx="95" cy="172" r="2.5"/>
  <circle cx="130" cy="198" r="3"/>
  <!-- Queixo/pescoço contorno -->
  <path d="M70 165c-4 12-6 25-5 38 1 10 4 15 4 15 8-2 20-4 31-4s23 2 31 4c0 0 3-5 4-15 1-13-1-26-5-38" fill="none" stroke="currentColor" stroke-width="2.5"/>
</svg>
