<svg xmlns="http://www.w3.org/2000/svg" viewBox="0 0 64 64" fill="none">
  <!-- Rosto do dálmata -->
  <ellipse cx="32" cy="35" rx="22" ry="24" fill="white" stroke="#1a1a1a" stroke-width="2"/>
  <!-- Orelhas -->
  <ellipse cx="14" cy="18" rx="8" ry="12" fill="#1a1a1a"/>
  <ellipse cx="50" cy="18" rx="8" ry="12" fill="#1a1a1a"/>
  <!-- Manchas dálmata -->
  <circle cx="22" cy="28" r="4" fill="#1a1a1a"/>
  <circle cx="40" cy="24" r="3.5" fill="#1a1a1a"/>
  <circle cx="26" cy="42" r="3" fill="#1a1a1a"/>
  <circle cx="44" cy="38" r="4.5" fill="#1a1a1a"/>
  <circle cx="35" cy="30" r="2.5" fill="#1a1a1a"/>
  <!-- Olhos -->
  <ellipse cx="25" cy="33" rx="3.5" ry="4" fill="#1a1a1a"/>
  <ellipse cx="39" cy="33" rx="3.5" ry="4" fill="#1a1a1a"/>
  <ellipse cx="26" cy="32" rx="1.5" ry="2" fill="white"/>
  <ellipse cx="40" cy="32" rx="1.5" ry="2" fill="white"/>
  <!-- Focinho -->
  <ellipse cx="32" cy="44" rx="7" ry="5" fill="#f5f0eb"/>
  <ellipse cx="32" cy="42" rx="4" ry="3" fill="#1a1a1a"/>
  <!-- Boca -->
  <path d="M29 48 Q32 51 35 48" stroke="#1a1a1a" stroke-width="1.5" fill="none" stroke-linecap="round"/>
  <!-- Língua (toque simpático) -->
  <ellipse cx="32" cy="50" rx="2" ry="2.5" fill="#e85d75"/>
</svg>
